#!OML:ASF I:\Actors\actors\Patient Classification 2\Patient 1\Session 1\actor1.ASF
:FULLY-SPECIFIED
:DEGREES
323
root -0.45174 17.6337 4.62985 25.9767 -2.79156 -7.97208
lowerback 25.8685 -0.572018 0.86663
upperback 1.21872 -0.441108 0.434074
thorax -13.135 -0.239376 0.157145
lowerneck -13.5029 1.38531 4.70654
upperneck 7.10896 0.871193 1.27528
head 4.33818 0.641561 -0.295083
rclavicle -7.15625e-015 1.51076e-014
rhumerus -67.1894 5.45596 -100.737
rradius 118.125
rwrist 24.1016
rhand -10.8356 -43.3293
rfingers 7.12502
rthumb 15.1788 -72.7526
lclavicle -7.15625e-015 1.51076e-014
lhumerus -49.201 -18.9423 96.6038
lradius 124.27
lwrist -16.5918
lhand 15.4031 -2.89903
lfingers 7.12502
lthumb 40.231 22.2569
rfemur -47.8115 -10.2342 26.0905
rtibia 43.5312
rfoot -17.7982 5.17601
rtoes -13.649
lfemur -55.267 13.4674 -10.3813
ltibia 55.2001
lfoot -23.5122 0.577272
ltoes -57.1711
324
root -0.46568 17.6622 4.635 25.9231 -2.58489 -7.79759
lowerback 25.7987 -0.312638 0.478935
upperback 1.13357 -0.274417 0.0155409
thorax -13.1957 -0.157085 -0.157771
lowerneck -13.5944 1.10499 4.45048
upperneck 7.32342 0.487869 1.69289
head 4.41226 0.476278 -0.153152
rclavicle 1.51076e-014 4.77083e-015
rhumerus -67.2074 6.11921 -100.689
rradius 118.453
rwrist 23.8046
rhand -10.774 -43.3807
rfingers 7.12502
rthumb 15.2382 -72.7995
lclavicle 1.51076e-014 4.77083e-015
lhumerus -49.7186 -18.9584 96.6934
lradius 124.194
lwrist -16.6202
lhand 17.1011 -3.79349
lfingers 7.12502
lthumb 41.8255 20.8547
rfemur -47.5175 -10.3044 25.9449
rtibia 43.1207
rfoot -17.7016 4.98303
rtoes -13.3868
lfemur -54.9596 13.1345 -10.4002
ltibia 54.6727
lfoot -23.3 0.718328
ltoes -57.1598
325
root -0.48539 17.698 4.6529 25.5791 -2.38056 -7.72368
lowerback 26.1291 0.0314291 0.307089
upperback 1.01283 0.0715197 -0.357309
thorax -13.5158 -0.00707259 -0.61204
lowerneck -13.7256 0.670838 3.79034
upperneck 7.59368 -0.0549242 2.32311
head 4.51135 0.236061 0.106893
rclavicle 1.43125e-014 1.19271e-014
rhumerus -67.2385 6.40681 -100.425
rradius 118.869
rwrist 23.5233
rhand -10.1406 -43.6152
rfingers 7.12502
rthumb 15.8483 -72.9865
lclavicle 1.43125e-014 1.19271e-014
lhumerus -50.4883 -19.1842 97.0055
lradius 123.524
lwrist -16.5754
lhand 16.9607 -4.75472
lfingers 7.12502
lthumb 41.694 19.937
rfemur -46.794 -10.3819 25.8623
rtibia 42.6832
rfoot -17.6422 4.86261
rtoes -12.7898
lfemur -54.2189 12.9564 -10.2871
ltibia 54.0855
lfoot -23.139 0.703799
ltoes -57.1239
326
root -0.507781 17.7328 4.67924 25.2601 -2.11023 -7.70825
lowerback 26.0906 0.328573 0.10324
upperback 1.00087 0.35443 -0.662615
thorax -13.5043 0.120119 -0.948442
lowerneck -13.7786 0.324919 3.26634
upperneck 7.63828 -0.489048 2.90822
head 4.53458 0.0455596 0.338709
rclavicle -1.03368e-014 -7.95139e-015
rhumerus -67.0032 6.74225 -99.9903
rradius 119.329
rwrist 23.8364
rhand -8.81633 -43.4745
rfingers 7.12502
rthumb 17.1232 -72.74
lclavicle -1.03368e-014 -7.95139e-015
lhumerus -50.7876 -19.2414 97.1462
lradius 124.078
lwrist -16.5457
lhand 16.6117 -4.58547
lfingers 7.12502
lthumb 41.3665 20.2133
rfemur -46.0707 -10.4953 25.8851
rtibia 42.2505
rfoot -17.5853 4.69212
rtoes -12.6859
lfemur -53.4748 12.8192 -10.1052
ltibia 53.4779
lfoot -22.988 0.610653
ltoes -57.1602
327
root -0.535489 17.7687 4.70638 24.8511 -1.55417 -7.53044
lowerback 25.6907 0.558397 -0.42134
upperback 1.26462 0.490475 -0.763961
thorax -12.9773 0.213328 -0.803534
lowerneck -13.9824 0.0342074 2.79172
upperneck 7.49733 -0.840606 3.33573
head 4.52781 -0.115438 0.520067
rclavicle 7.95139e-016 2.62396e-014
rhumerus -66.2433 7.25634 -99.1038
rradius 119.798
rwrist 24.7766
rhand -7.00421 -42.8294
rfingers 7.12502
rthumb 18.8668 -71.9344
lclavicle 7.95139e-016 2.62396e-014
lhumerus -50.7873 -19.1564 97.2733
lradius 124.039
lwrist -16.5275
lhand 15.8586 -4.4863
lfingers 7.12502
lthumb 40.6593 20.5374
rfemur -45.2449 -10.7791 25.7869
rtibia 41.8353
rfoot -17.6628 4.3918
rtoes -12.8432
lfemur -52.7022 12.3455 -9.94832
ltibia 52.8545
lfoot -22.8337 0.50349
ltoes -57.1428
328
root -0.556617 17.7991 4.74317 24.5777 -1.14657 -7.38993
lowerback 25.5075 0.794215 -0.766711
upperback 1.1771 0.671123 -0.975054
thorax -12.979 0.308165 -0.908691
lowerneck -14.0612 -0.293879 2.40643
upperneck 7.57541 -1.26175 3.76963
head 4.57246 -0.303496 0.683429
rclavicle 2.38542e-015 1.19271e-014
rhumerus -65.9789 7.57378 -98.5498
rradius 120.292
rwrist 25.4969
rhand -5.35029 -42.7205
rfingers 7.12502
rthumb 20.4568 -71.6628
lclavicle 2.38542e-015 1.19271e-014
lhumerus -51.3549 -19.0638 97.4966
lradius 124.079
lwrist -16.4861
lhand 15.709 -4.31636
lfingers 7.12502
lthumb 40.5186 20.7511
rfemur -44.5744 -11.0553 25.7371
rtibia 41.4468
rfoot -17.6676 4.23737
rtoes -12.7726
lfemur -52.0459 12.0417 -9.86052
ltibia 52.2644
lfoot -22.7016 0.437245
ltoes -57.2227
329
root -0.570809 17.8275 4.77964 24.3179 -0.737121 -7.20364
lowerback 25.2797 0.989062 -1.0349
upperback 1.08351 0.82064 -1.20272
thorax -12.9625 0.383852 -1.06461
lowerneck -14.0761 -0.587248 1.99539
upperneck 7.55246 -1.62361 4.19302
head 4.57822 -0.466745 0.852103
rclavicle 1.51076e-014 0
rhumerus -65.7329 7.98553 -98.1787
rradius 120.745
rwrist 25.7628
rhand -4.12005 -43.2263
rfingers 7.12502
rthumb 21.6387 -72.0371
lclavicle 1.51076e-014 0
lhumerus -51.8981 -18.9695 97.6972
lradius 124.116
lwrist -16.446
lhand 15.4589 -4.2819
lfingers 7.12502
lthumb 40.2835 20.858
rfemur -43.9577 -11.4584 25.6627
rtibia 41.081
rfoot -17.6346 4.12917
rtoes -12.8278
lfemur -51.4354 11.6499 -9.83058
ltibia 51.6927
lfoot -22.5648 0.436324
ltoes -57.254
330
root -0.585088 17.8568 4.81378 23.9907 -0.232459 -6.98456
lowerback 25.126 1.12739 -1.24537
upperback 1.01879 0.915782 -1.41194
thorax -12.9527 0.432154 -1.21371
lowerneck -14.2265 -0.878981 1.50284
upperneck 7.61663 -1.97633 4.61563
head 4.63663 -0.624058 1.03407
rclavicle 7.95139e-015 4.37326e-014
rhumerus -65.4665 8.39663 -97.8225
rradius 121.189
rwrist 26.0096
rhand -3.06653 -43.6004
rfingers 7.12502
rthumb 22.6501 -72.2913
lclavicle 7.95139e-015 4.37326e-014
lhumerus -52.3257 -18.8681 97.8733
lradius 124.112
lwrist -16.4384
lhand 15.3961 -4.28168
lfingers 7.12502
lthumb 40.2244 20.8763
rfemur -43.2407 -11.8583 25.5198
rtibia 40.691
rfoot -17.6652 3.97455
rtoes -12.5825
lfemur -50.778 11.1148 -9.78209
ltibia 51.1202
lfoot -22.3885 0.450718
ltoes -57.1251
331
root -0.599443 17.8844 4.84747 23.7661 0.304368 -6.77189
lowerback 24.7806 1.23978 -1.50981
upperback 0.964523 0.977978 -1.55157
thorax -12.8274 0.472476 -1.23542
lowerneck -14.3196 -1.16015 1.04568
upperneck 7.57771 -2.30282 4.93588
head 4.65448 -0.777055 1.18044
rclavicle -1.59028e-015 3.4191e-014
rhumerus -65.1931 8.91076 -97.4206
rradius 121.653
rwrist 26.2352
rhand -2.24516 -43.7944
rfingers 7.12502
rthumb 23.4382 -72.3869
lclavicle -1.59028e-015 3.4191e-014
lhumerus -52.6233 -18.6245 98.0748
lradius 124.068
lwrist -16.4097
lhand 15.5182 -4.26179
lfingers 7.12502
lthumb 40.3392 20.861
rfemur -42.6275 -12.1787 25.3728
rtibia 40.2938
rfoot -17.6922 3.76712
rtoes -12.1854
lfemur -50.2297 10.5629 -9.74659
ltibia 50.5356
lfoot -22.1665 0.501287
ltoes -57.2257
332
root -0.618007 17.9194 4.88827 23.4232 0.654784 -6.6305
lowerback 24.4753 1.48885 -1.98506
upperback 0.995449 1.17992 -1.55865
thorax -12.6317 0.593871 -1.0322
lowerneck -14.3862 -1.46142 0.509501
upperneck 7.41753 -2.63108 5.23262
head 4.63346 -0.937902 1.332
rclavicle 1.27222e-014 1.59028e-015
rhumerus -64.8332 9.51571 -96.7536
rradius 122.109
rwrist 26.2766
rhand -1.82058 -43.765
rfingers 7.12502
rthumb 23.8455 -72.3049
lclavicle 1.27222e-014 1.59028e-015
lhumerus -52.7906 -18.3333 98.4558
lradius 123.988
lwrist -16.407
lhand 15.561 -4.15331
lfingers 7.12502
lthumb 40.3794 20.9572
rfemur -41.8216 -12.2916 25.2056
rtibia 39.8746
rfoot -17.7409 3.53538
rtoes -12.1111
lfemur -49.4341 10.2703 -9.68896
ltibia 49.9082
lfoot -21.9994 0.450747
ltoes -57.2879
333
root -0.637541 17.9539 4.92564 23.1315 1.04463 -6.36939
lowerback 24.3669 1.74549 -1.96472
upperback 0.91896 1.47946 -1.88578
thorax -12.6511 0.716913 -1.51744
lowerneck -14.7295 -1.93822 0.125738
upperneck 7.45415 -3.25167 5.64301
head 4.73012 -1.2209 1.46811
rclavicle 2.78299e-014 -2.54444e-014
rhumerus -64.539 9.33305 -96.2695
rradius 122.537
rwrist 26.3458
rhand -1.6657 -43.603
rfingers 7.12502
rthumb 23.994 -72.1234
lclavicle 2.78299e-014 -2.54444e-014
lhumerus -53.1635 -18.7325 98.7249
lradius 123.951
lwrist -16.4395
lhand 15.6177 -4.06205
lfingers 7.12502
lthumb 40.4328 21.032
rfemur -41.0868 -12.4225 24.9138
rtibia 39.453
rfoot -17.8151 3.21131
rtoes -12.1326
lfemur -48.72 9.83216 -9.72574
ltibia 49.2503
lfoot -21.8001 0.43512
ltoes -57.2403
334
root -0.654934 17.988 4.96052 22.8234 1.50673 -6.05669
lowerback 24.1196 1.88568 -2.54345
upperback 0.940233 1.5126 -1.90112
thorax -12.5055 0.767259 -1.20557
lowerneck -14.8549 -2.11821 -0.0816199
upperneck 7.2753 -3.44301 5.62351
head 4.70294 -1.32448 1.47873
rclavicle 1.35174e-014 7.95139e-016
rhumerus -64.1812 10.0546 -95.8794
rradius 122.852
rwrist 25.9441
rhand -2.71507 -43.4391
rfingers 7.12502
rthumb 22.9874 -72.0884
lclavicle 1.35174e-014 7.95139e-016
lhumerus -53.3249 -18.274 98.9876
lradius 123.942
lwrist -16.6484
lhand 15.7287 -4.17542
lfingers 7.12502
lthumb 40.5371 20.8863
rfemur -40.3393 -12.7009 24.612
rtibia 38.9912
rfoot -17.7997 2.84451
rtoes -12.4485
lfemur -47.9918 9.26869 -9.79083
ltibia 48.5461
lfoot -21.5491 0.456739
ltoes -57.1753
335
root -0.672748 18.0252 4.99534 22.4792 2.04058 -5.77658
lowerback 24.2314 1.92864 -2.54266
upperback 0.736831 1.51226 -2.25907
thorax -12.7938 0.753195 -1.62311
lowerneck -14.893 -2.37939 -0.0883058
upperneck 7.37103 -3.82794 5.88709
head 4.757 -1.49317 1.52851
rclavicle -1.59028e-014 3.10104e-014
rhumerus -64.1888 10.2436 -96.0663
rradius 123.173
rwrist 25.7273
rhand -3.98449 -43.4066
rfingers 7.12502
rthumb 21.7689 -72.2025
lclavicle -1.59028e-014 3.10104e-014
lhumerus -53.9679 -18.2604 98.9291
lradius 124.008
lwrist -16.6346
lhand 15.7869 -4.19674
lfingers 7.12502
lthumb 40.5918 20.848
rfemur -39.5448 -13.0781 24.3864
rtibia 38.5055
rfoot -17.7037 2.48588
rtoes -12.8956
lfemur -47.2276 8.75558 -9.83964
ltibia 47.7964
lfoot -21.2592 0.408766
ltoes -57.1985
336
root -0.69129 18.0663 5.03854 22.0767 2.48428 -5.5695
lowerback 24.0705 2.00983 -2.97211
upperback 0.697542 1.49859 -2.32645
thorax -12.7607 0.771592 -1.44466
lowerneck -14.7989 -2.4853 -0.0846489
upperneck 7.27373 -3.96809 5.92544
head 4.71675 -1.56336 1.5289
rclavicle 1.27222e-014 -1.59028e-015
rhumerus -63.9168 10.8941 -95.7477
rradius 123.571
rwrist 26.1991
rhand -3.29418 -43.557
rfingers 7.12502
rthumb 22.4316 -72.2744
lclavicle 1.27222e-014 -1.59028e-015
lhumerus -54.3427 -17.7657 99.0143
lradius 124.025
lwrist -16.5899
lhand 15.7714 -4.15301
lfingers 7.12502
lthumb 40.5773 20.8962
rfemur -38.613 -13.3387 24.1778
rtibia 37.9691
rfoot -17.5958 2.21745
rtoes -12.9416
lfemur -46.3293 8.45895 -9.87266
ltibia 46.9984
lfoot -20.9673 0.277487
ltoes -57.297
337
root -0.711229 18.1067 5.08341 21.7173 2.94967 -5.32612
lowerback 24.0028 2.07764 -2.86699
upperback 0.558404 1.56311 -2.7234
thorax -12.8711 0.779155 -1.98102
lowerneck -14.7391 -2.74757 0.0565394
upperneck 7.26324 -4.37499 6.18134
head 4.72091 -1.74338 1.55158
rclavicle 8.74653e-015 -7.15625e-015
rhumerus -63.7626 10.8125 -95.7248
rradius 123.942
rwrist 26.6393
rhand -2.47648 -43.4621
rfingers 7.12502
rthumb 23.2163 -72.0827
lclavicle 8.74653e-015 -7.15625e-015
lhumerus -54.9547 -17.9142 98.8541
lradius 124.102
lwrist -16.3758
lhand 15.784 -4.07318
lfingers 7.12502
lthumb 40.5891 20.9724
rfemur -37.6715 -13.5072 23.8893
rtibia 37.3798
rfoot -17.5816 1.92642
rtoes -12.5877
lfemur -45.4565 8.14726 -9.94836
ltibia 46.1608
lfoot -20.6488 0.132783
ltoes -57.3454
